<svg width="44px" height="20px" viewBox="0 0 44 20" version="1.1" xmlns="http://www.w3.org/2000/svg" xmlns:xlink="http://www.w3.org/1999/xlink">
    <g id="Symbols" stroke="none" stroke-width="1" fill="none" fill-rule="evenodd">
        <g id="visa-logo" fill-rule="nonzero" fill="#FFFFFF">
            <g id="visa" transform="translate(2.000000, 2.500000)">
                <path d="M19.91,1.28 L17.21,13.84 L14,13.84 L16.68,1.28 L19.91,1.28 Z M33.59,9.39 L35.3,4.67 L36.3,9.39 L33.59,9.39 Z M37.19,13.84 L40.19,13.84 L37.6,1.28 L34.82,1.28 C34.216486,1.26847064 33.6664453,1.62461208 33.43,2.18 L28.59,13.85 L32,13.85 L32.68,12 L36.85,12 L37.19,13.84 Z M28.7,9.74 C28.7,6.42 24.11,6.24 24.15,4.74 C24.15,4.29 24.59,3.84 25.53,3.69 C26.6309073,3.58415496 27.7399642,3.77763528 28.74,4.25 L29.31,1.55 C28.3504132,1.18943877 27.335043,0.99990301 26.31,0.99 C23.09,0.99 20.84,2.69 20.82,5.14 C20.78,7 22.4,8 23.63,8.58 C24.86,9.16 25.32,9.58 25.31,10.14 C25.31,10.99 24.31,11.36 23.36,11.37 C22.1906489,11.4004851 21.0332537,11.1283595 20,10.58 L19.41,13.34 C20.5579614,13.7850235 21.7787989,14.0122349 23.01,14.01 C26.42,14.01 28.66,12.33 28.67,9.71 L28.7,9.74 Z M15.27,1.28 L10,13.85 L6.57,13.85 L4,3.82 C3.94775826,3.34846464 3.65696517,2.93682248 3.23,2.73 C2.20284127,2.23607771 1.11766774,1.87323331 0,1.65 L0.08,1.29 L5.6,1.29 C6.34802715,1.28622693 6.98607016,1.83069029 7.1,2.57 L8.47,9.84 L11.85,1.29 L15.27,1.28 Z" id="path4163"></path>
            </g>
        </g>
    </g>
</svg>
